<svg xmlns="http://www.w3.org/2000/svg" width="200" height="200" viewBox="0 0 200 200" fill="none">
  <g transform="translate(100, 10) scale(0.08)">
    <path class="st0" d="M505.296,6.559c-12.231-12.224-33.342-6.765-55.71,11.414c-20.281,16.085-126.487,102.01-182.065,155.494
		c-38.739,33.712-68.884,66.573-75.517,90.889l55.487,55.494c24.323-6.626,57.184-36.771,90.896-75.517
		c53.49-55.578,139.416-161.784,155.494-182.058C512.06,39.902,517.527,18.797,505.296,6.559z" fill="#1f2937"/>
    <polygon class="st0" points="151.254,303.856 208.285,360.894 236.81,332.368 179.773,275.331" fill="#1f2937"/>
    <path class="st0" d="M4.969,404.066c-6.436,6.444-6.436,16.881,0,23.324l79.782,79.782c6.444,6.437,16.88,6.437,23.317,0
		l44.135-44.142L49.105,359.938L4.969,404.066z" fill="#1f2937"/>
    <path class="st0" d="M140.288,314.818c-16.448,16.454-34.551-11.52-69.102,23.038l-10.423,10.416l103.1,103.107l10.43-10.423
		c34.543-34.55,6.576-52.653,23.032-69.101L140.288,314.818z" fill="#1f2937"/>
  </g>

  <!-- Hammer SVG Instances -->
  <g transform="translate(50, 50) scale(0.1)">
    <path d="M46.162,507.995c2.594,2.594,6.141,4.047,9.813,4s7.172-1.563,9.719-4.219l257.922-264.093l-45.969-45.969
		L12.99,455.073c-2.656,2.531-4.188,6.047-4.219,9.719c-0.047,3.672,1.391,7.219,4,9.813L46.162,507.995z" fill="#1f2937"/>
    <path d="M493.412,332.074c13.469-34.469,20.063-127.641-27.859-175.563c-25.438-25.438-75.844-75.828-75.844-75.828
		c-13.234-13.25-26.359-0.953-36.141-10.734s0-25.422-8.813-34.219L312.475,3.449c-4.594-4.594-12.047-4.594-16.625,0
		l-44.984,44.969c-4.594,4.594-4.609,12.047,0,16.641l32.281,32.281c8.797,8.813,24.438-0.984,34.219,8.797
		c13.219,13.203,10.969,27.609,2.656,35.906l-16.625,16.641l-4.734,18l45.984,45.969l17.438-5.297
		c14.672-14.672,31.656-16.75,40.844-7.563c57.719,59.203,58.953,103.953,67.75,125.953
		C476.287,349.777,490.24,345.511,493.412,332.074z" fill="#1f2937"/>
  </g>
  <g transform="translate(150, 150) scale(0.1)">
    <path d="M459.957,203.4c42.547-38.609,49.656-82.484,40.141-119.469c-0.281-2.938-0.984-5.406-3.547-7.266
		l-8.563-7.016c-1.484-1.375-3.484-2.063-5.484-1.859c-2.016,0.188-3.844,1.234-5.031,2.859l-49.25,64.031
		c-1.375,1.891-3.594,2.969-5.922,2.891l-17.875,1.313c-1.531-0.047-3.016-0.594-4.219-1.563l-34.531-29.266
		c-1.406-1.141-2.328-2.766-2.563-4.563l-2.141-16.188c-0.25-1.781,0.203-3.594,1.266-5.047l46.109-62.641
		c2.094-2.891,1.688-6.875-0.906-9.297l-11.188-8.734c-2.188-2.047-4.672-1.75-8.063-1.109
		c-31.844,6.297-86.219,37.125-100.016,79.75c-12.156,37.516-7.922,63.969-7.922,63.969c0,21.141-6.953,41.516-15.5,50.078
		L24.504,424.916c-0.469,0.438-0.922,0.859-1.375,1.313c-19.844,19.844-19.813,52.063-0.641,71.219
		c19.172,19.172,51.859,19.688,71.703-0.172c0.922-0.922,1.813-1.875,2.641-2.859l231.672-250.438
		C357.004,218.619,413.426,245.65,459.957,203.4z" fill="#1f2937"/>
  </g>
    <g transform="translate(10, 10) scale(0.1)">
    <rect x="164" y="154" width="32" height="52" fill="#1f2937"></rect>
    <path d="M210,210a10,10,0,0,1-10,10H160a10,10,0,0,1-10-10V190H20v90a20,20,0,0,0,20,20H320a20,20,0,0,0,20-20V190H210Z" fill="#1f2937"></path>
    <path d="M337.1,123.8,296.2,82.9A10,10,0,0,0,289.2,80H240V60.5A20,20,0,0,0,220,40H138.4A19.2,19.2,0,0,0,120,60.5V80H70.8a10,10,0,0,0-7.1,2.9L22.9,123.8a10,10,0,0,0-2.9,7.1V170H150V150a10,10,0,0,1,10-10h40a10,10,0,0,1,10,10v20H340V130.8A10,10,0,0,0,337.1,123.8ZM220,80H140V60h80Z" fill="#1f2937"></path>
  </g>
</svg>